<?xml version="1.0" encoding="utf-8"?>
<!-- Generator: Adobe Illustrator 19.2.1, SVG Export Plug-In . SVG Version: 6.00 Build 0)  -->
<svg version="1.1" id="Layer_1" xmlns="http://www.w3.org/2000/svg" xmlns:xlink="http://www.w3.org/1999/xlink" x="0px" y="0px"
	 viewBox="0 0 32 32" style="enable-background:new 0 0 32 32;" xml:space="preserve">
<style type="text/css">
	.st0{fill:#1A350E;}
</style>
<g id="Outline_Color_copy_2">
	<path class="st0" d="M28,1c1.7,0,3,1.3,3,3v24c0,1.7-1.3,3-3,3H4c-1.7,0-3-1.3-3-3V4c0-1.7,1.3-3,3-3H28 M28,0H4C1.8,0,0,1.8,0,4
		v24c0,2.2,1.8,4,4,4h24c2.2,0,4-1.8,4-4V4C32,1.8,30.2,0,28,0L28,0z"/>
	<path class="st0" d="M21.7,19.4c-0.2,0-0.3,0-0.3,0.1c-0.1,0.1-0.1,0.2-0.1,0.5v0.5h0.9V20c0-0.2,0-0.4-0.1-0.5
		C22,19.5,21.8,19.4,21.7,19.4z"/>
	<path class="st0" d="M18.2,19.4c-0.1,0-0.1,0-0.2,0c-0.1,0-0.1,0.1-0.2,0.2v3.2c0.1,0.1,0.2,0.1,0.2,0.2c0.1,0,0.2,0.1,0.2,0.1
		c0.1,0,0.2,0,0.3-0.1c0.1-0.1,0.1-0.2,0.1-0.4v-2.7c0-0.2,0-0.3-0.1-0.4C18.4,19.4,18.3,19.4,18.2,19.4z"/>
	<path class="st0" d="M23.8,15.4C23,14.6,16,14.6,16,14.6c0,0-7,0-7.8,0.8c-0.8,0.8-0.8,4.9-0.8,5c0,0,0,4.1,0.8,5
		C9,26.1,16,26.2,16,26.2s7,0,7.8-0.8c0.8-0.8,0.8-5,0.8-5C24.7,20.3,24.7,16.2,23.8,15.4z M12.7,17.8h-1.2v6h-1.1v-6H9.2v-1h3.5
		V17.8z M16,23.8h-1v-0.6c-0.2,0.2-0.4,0.4-0.6,0.5c-0.2,0.1-0.4,0.2-0.6,0.2c-0.2,0-0.4-0.1-0.5-0.2c-0.1-0.2-0.2-0.4-0.2-0.7v-4.3
		h1v3.9c0,0.1,0,0.2,0.1,0.3c0,0.1,0.1,0.1,0.2,0.1c0.1,0,0.2,0,0.3-0.1c0.1-0.1,0.2-0.2,0.3-0.3v-3.9h1V23.8z M19.7,22.7
		c0,0.4-0.1,0.6-0.2,0.8c-0.2,0.2-0.4,0.3-0.7,0.3c-0.2,0-0.4,0-0.5-0.1c-0.2-0.1-0.3-0.2-0.4-0.3v0.4h-1v-7h1v2.2
		c0.1-0.2,0.3-0.3,0.4-0.4c0.2-0.1,0.3-0.1,0.5-0.1c0.3,0,0.6,0.1,0.7,0.3c0.2,0.2,0.3,0.5,0.3,1V22.7z M23.2,21.3h-1.9v1
		c0,0.3,0,0.5,0.1,0.6c0.1,0.1,0.2,0.2,0.3,0.2c0.2,0,0.3,0,0.4-0.1c0.1-0.1,0.1-0.3,0.1-0.6v-0.2h1v0.3c0,0.5-0.1,0.9-0.4,1.2
		c-0.3,0.3-0.6,0.4-1.1,0.4c-0.5,0-0.8-0.1-1.1-0.4c-0.3-0.3-0.4-0.7-0.4-1.2V20c0-0.4,0.1-0.8,0.4-1.1c0.3-0.3,0.7-0.4,1.1-0.4
		c0.5,0,0.8,0.1,1.1,0.4s0.4,0.6,0.4,1.1C23.2,20,23.2,21.3,23.2,21.3z"/>
	<path class="st0" d="M21.7,13.5h-1.1v-0.6c-0.2,0.2-0.4,0.4-0.7,0.5c-0.2,0.1-0.4,0.2-0.7,0.2c-0.3,0-0.5-0.1-0.6-0.3
		c-0.1-0.2-0.2-0.4-0.2-0.8V7.8h1.1v4.3c0,0.1,0,0.2,0.1,0.3c0,0.1,0.1,0.1,0.2,0.1c0.1,0,0.2,0,0.3-0.1c0.1-0.1,0.2-0.2,0.4-0.3
		V7.8h1.1L21.7,13.5L21.7,13.5z"/>
	<path class="st0" d="M17.1,8.1c-0.3-0.3-0.7-0.4-1.2-0.4c-0.5,0-0.9,0.1-1.2,0.4c-0.3,0.3-0.5,0.6-0.5,1v2.9c0,0.5,0.1,0.9,0.4,1.1
		c0.3,0.3,0.7,0.4,1.2,0.4c0.5,0,0.9-0.1,1.2-0.4c0.3-0.3,0.4-0.7,0.4-1.1V9.2C17.5,8.7,17.4,8.4,17.1,8.1z M16.4,12.2
		c0,0.2,0,0.3-0.1,0.4c-0.1,0.1-0.2,0.1-0.4,0.1c-0.2,0-0.3,0-0.3-0.1c-0.1-0.1-0.1-0.2-0.1-0.4V9.1c0-0.1,0-0.2,0.1-0.3
		c0.1-0.1,0.2-0.1,0.3-0.1c0.1,0,0.3,0,0.4,0.1s0.1,0.2,0.1,0.3L16.4,12.2L16.4,12.2z"/>
	<polygon class="st0" points="11.1,5.8 9.8,5.8 11.3,10.5 11.3,13.5 12.6,13.5 12.6,10.3 14.1,5.8 12.8,5.8 12,8.9 11.9,8.9 	"/>
</g>
</svg>
